#pragma bank 255

#include "hUGEDriver.h"
#include <stddef.h>
#include "hUGEDriverRoutines.h"

static const unsigned char order_cnt = 18;
static const unsigned char song_pattern_0[] = {
    DN(C_6, 3, 0x000),
    DN(___, 0, 0x000),
    DN(Ds6, 3, 0x000),
    DN(C_6, 3, 0xC05),
    DN(G_6, 3, 0x000),
    DN(Ds6, 3, 0xC05),
    DN(Ds6, 3, 0x000),
    DN(G_6, 3, 0xC05),
    DN(C_6, 3, 0x000),
    DN(Ds6, 3, 0xC05),
    DN(Ds6, 3, 0x000),
    DN(C_6, 3, 0xC05),
    DN(G_6, 3, 0x000),
    DN(Ds6, 3, 0xC05),
    DN(Ds6, 3, 0x000),
    DN(G_6, 3, 0xC05),
    DN(C_6, 3, 0x000),
    DN(Ds6, 3, 0xC05),
    DN(Ds6, 3, 0x000),
    DN(C_6, 3, 0xC05),
    DN(G_6, 3, 0x000),
    DN(Ds6, 3, 0xC05),
    DN(Ds6, 3, 0x000),
    DN(G_6, 3, 0xC05),
    DN(C_6, 3, 0x000),
    DN(Ds6, 3, 0xC05),
    DN(Ds6, 3, 0x000),
    DN(C_6, 3, 0xC05),
    DN(G_6, 3, 0x000),
    DN(Ds6, 3, 0xC05),
    DN(Ds6, 3, 0x000),
    DN(G_6, 3, 0xC05),
    DN(C_6, 3, 0x000),
    DN(___, 0, 0x000),
    DN(Ds6, 3, 0x000),
    DN(C_6, 3, 0xC05),
    DN(Gs6, 3, 0x000),
    DN(Ds6, 3, 0xC05),
    DN(Ds6, 3, 0x000),
    DN(Gs6, 3, 0xC05),
    DN(C_6, 3, 0x000),
    DN(Ds6, 3, 0xC05),
    DN(Ds6, 3, 0x000),
    DN(C_6, 3, 0xC05),
    DN(Gs6, 3, 0x000),
    DN(Ds6, 3, 0xC05),
    DN(Ds6, 3, 0x000),
    DN(Gs6, 3, 0xC05),
    DN(As5, 3, 0x000),
    DN(___, 0, 0x000),
    DN(D_6, 3, 0x000),
    DN(As5, 3, 0xC05),
    DN(F_6, 3, 0x000),
    DN(D_6, 3, 0xC05),
    DN(D_6, 3, 0x000),
    DN(F_6, 3, 0xC05),
    DN(As5, 3, 0x000),
    DN(D_6, 3, 0xC05),
    DN(D_6, 3, 0x000),
    DN(As5, 3, 0xC05),
    DN(F_6, 3, 0x000),
    DN(D_6, 3, 0xC05),
    DN(D_6, 3, 0x000),
    DN(F_6, 3, 0xC05),
};
static const unsigned char song_pattern_1[] = {
    DN(G_5, 2, 0x481),
    DN(___, 0, 0x481),
    DN(As5, 2, 0x30F),
    DN(G_5, 2, 0xC07),
    DN(C_6, 2, 0x338),
    DN(___, 0, 0x481),
    DN(___, 0, 0x481),
    DN(___, 0, 0x481),
    DN(___, 0, 0x481),
    DN(___, 0, 0x481),
    DN(___, 0, 0x481),
    DN(___, 0, 0x481),
    DN(___, 0, 0x482),
    DN(___, 0, 0x482),
    DN(___, 0, 0x482),
    DN(___, 0, 0x482),
    DN(___, 0, 0xA01),
    DN(___, 0, 0x482),
    DN(___, 0, 0xA01),
    DN(___, 0, 0x482),
    DN(___, 0, 0xA01),
    DN(___, 0, 0x482),
    DN(___, 0, 0xA01),
    DN(___, 0, 0xA01),
    DN(Ds6, 2, 0x310),
    DN(___, 0, 0x481),
    DN(D_6, 2, 0x330),
    DN(Ds6, 2, 0xC07),
    DN(C_6, 2, 0x330),
    DN(D_6, 2, 0xC07),
    DN(As5, 2, 0x330),
    DN(C_6, 2, 0xC07),
    DN(Gs5, 2, 0x340),
    DN(___, 0, 0x481),
    DN(___, 0, 0x481),
    DN(___, 0, 0x481),
    DN(___, 0, 0xA02),
    DN(___, 0, 0x481),
    DN(___, 0, 0xA02),
    DN(___, 0, 0xA02),
    DN(D_6, 2, 0x340),
    DN(___, 0, 0x481),
    DN(Ds6, 2, 0x350),
    DN(D_6, 2, 0xC07),
    DN(D_6, 2, 0x340),
    DN(Ds6, 2, 0xC07),
    DN(Gs5, 2, 0x350),
    DN(D_6, 2, 0xC07),
    DN(As5, 2, 0x34F),
    DN(___, 0, 0x481),
    DN(___, 0, 0x481),
    DN(___, 0, 0x481),
    DN(___, 0, 0x481),
    DN(___, 0, 0x481),
    DN(___, 0, 0xA02),
    DN(___, 0, 0xA02),
    DN(Ds6, 2, 0x360),
    DN(___, 0, 0x481),
    DN(D_6, 2, 0x330),
    DN(Ds6, 2, 0xC07),
    DN(C_6, 2, 0x330),
    DN(D_6, 2, 0xC07),
    DN(As5, 2, 0x360),
    DN(C_6, 2, 0xC07),
};
static const unsigned char song_pattern_2[] = {
    DN(C_4, 4, 0xC00),
    DN(___, 0, 0xC00),
    DN(___, 0, 0xC01),
    DN(___, 0, 0xC01),
    DN(___, 0, 0xC02),
    DN(___, 0, 0xC03),
    DN(___, 0, 0xC03),
    DN(___, 0, 0xC04),
    DN(___, 0, 0xC05),
    DN(___, 0, 0xC05),
    DN(___, 0, 0xC06),
    DN(___, 0, 0xC06),
    DN(___, 0, 0xC07),
    DN(___, 0, 0xC08),
    DN(___, 0, 0xC08),
    DN(___, 0, 0xC09),
    DN(___, 0, 0xC0A),
    DN(___, 0, 0xC0A),
    DN(___, 0, 0xC0B),
    DN(___, 0, 0xC0B),
    DN(___, 0, 0xC0C),
    DN(___, 0, 0xC0D),
    DN(___, 0, 0xC0D),
    DN(___, 0, 0xC0E),
    DN(___, 0, 0xC0F),
    DN(___, 0, 0x443),
    DN(___, 0, 0x443),
    DN(___, 0, 0x443),
    DN(___, 0, 0x443),
    DN(___, 0, 0x443),
    DN(___, 0, 0x443),
    DN(___, 0, 0x443),
    DN(Gs3, 4, 0x34F),
    DN(___, 0, 0x443),
    DN(___, 0, 0x443),
    DN(___, 0, 0x443),
    DN(___, 0, 0x443),
    DN(___, 0, 0x443),
    DN(___, 0, 0x443),
    DN(___, 0, 0x443),
    DN(___, 0, 0x443),
    DN(___, 0, 0x443),
    DN(___, 0, 0x443),
    DN(___, 0, 0x443),
    DN(___, 0, 0x443),
    DN(___, 0, 0x443),
    DN(___, 0, 0x443),
    DN(___, 0, 0x443),
    DN(As3, 4, 0x34F),
    DN(___, 0, 0x443),
    DN(___, 0, 0x443),
    DN(___, 0, 0x443),
    DN(___, 0, 0x443),
    DN(___, 0, 0x443),
    DN(___, 0, 0x443),
    DN(___, 0, 0x443),
    DN(___, 0, 0x443),
    DN(___, 0, 0x443),
    DN(___, 0, 0x443),
    DN(___, 0, 0x443),
    DN(___, 0, 0x443),
    DN(___, 0, 0x443),
    DN(___, 0, 0x443),
    DN(___, 0, 0x443),
};
static const unsigned char song_pattern_3[] = {
    DN(___, 0, 0x000),
    DN(___, 0, 0x623),
    DN(___, 0, 0x000),
    DN(___, 0, 0x000),
    DN(___, 0, 0x000),
    DN(___, 0, 0x000),
    DN(___, 0, 0x000),
    DN(___, 0, 0x000),
    DN(___, 0, 0x000),
    DN(___, 0, 0x602),
    DN(___, 0, 0x000),
    DN(___, 0, 0x000),
    DN(___, 0, 0x000),
    DN(___, 0, 0x000),
    DN(___, 0, 0x000),
    DN(___, 0, 0x000),
    DN(___, 0, 0x000),
    DN(___, 0, 0x000),
    DN(___, 0, 0x000),
    DN(___, 0, 0x000),
    DN(___, 0, 0x000),
    DN(___, 0, 0x000),
    DN(___, 0, 0x000),
    DN(___, 0, 0x000),
    DN(___, 0, 0x000),
    DN(___, 0, 0x000),
    DN(___, 0, 0x000),
    DN(___, 0, 0x000),
    DN(___, 0, 0x000),
    DN(___, 0, 0x000),
    DN(___, 0, 0x000),
    DN(___, 0, 0x000),
    DN(___, 0, 0x000),
    DN(___, 0, 0x000),
    DN(___, 0, 0x000),
    DN(___, 0, 0x000),
    DN(___, 0, 0x000),
    DN(___, 0, 0x000),
    DN(___, 0, 0x000),
    DN(___, 0, 0x000),
    DN(___, 0, 0x000),
    DN(___, 0, 0x000),
    DN(___, 0, 0x000),
    DN(___, 0, 0x000),
    DN(___, 0, 0x000),
    DN(___, 0, 0x000),
    DN(___, 0, 0x000),
    DN(___, 0, 0x000),
    DN(___, 0, 0x000),
    DN(___, 0, 0x000),
    DN(___, 0, 0x000),
    DN(___, 0, 0x000),
    DN(___, 0, 0x000),
    DN(___, 0, 0x000),
    DN(___, 0, 0x000),
    DN(___, 0, 0x000),
    DN(___, 0, 0x000),
    DN(___, 0, 0x000),
    DN(___, 0, 0x000),
    DN(___, 0, 0x000),
    DN(___, 0, 0x000),
    DN(___, 0, 0x000),
    DN(___, 0, 0x000),
    DN(___, 0, 0x000),
};
static const unsigned char song_pattern_4[] = {
    DN(G_5, 2, 0x481),
    DN(___, 0, 0x481),
    DN(As5, 2, 0x30F),
    DN(G_5, 2, 0xC07),
    DN(C_6, 2, 0x338),
    DN(___, 0, 0x481),
    DN(___, 0, 0x481),
    DN(___, 0, 0x481),
    DN(___, 0, 0x481),
    DN(___, 0, 0x481),
    DN(___, 0, 0x481),
    DN(___, 0, 0x481),
    DN(___, 0, 0x482),
    DN(___, 0, 0x482),
    DN(___, 0, 0x482),
    DN(___, 0, 0x482),
    DN(___, 0, 0xA01),
    DN(___, 0, 0x482),
    DN(___, 0, 0xA01),
    DN(___, 0, 0x482),
    DN(___, 0, 0xA01),
    DN(___, 0, 0x482),
    DN(___, 0, 0xA01),
    DN(___, 0, 0xA01),
    DN(Ds6, 2, 0x310),
    DN(___, 0, 0x481),
    DN(D_6, 2, 0x330),
    DN(Ds6, 2, 0xC07),
    DN(Ds6, 2, 0x330),
    DN(D_6, 2, 0xC07),
    DN(D_6, 2, 0x330),
    DN(Ds6, 2, 0xC07),
    DN(C_6, 2, 0x340),
    DN(___, 0, 0x481),
    DN(___, 0, 0x481),
    DN(___, 0, 0x481),
    DN(___, 0, 0xA02),
    DN(___, 0, 0x481),
    DN(___, 0, 0xA02),
    DN(___, 0, 0xA02),
    DN(D_6, 2, 0x340),
    DN(___, 0, 0x481),
    DN(Ds6, 2, 0x350),
    DN(D_6, 2, 0xC07),
    DN(D_6, 2, 0x340),
    DN(Ds6, 2, 0xC07),
    DN(C_6, 2, 0x350),
    DN(D_6, 2, 0xC07),
    DN(D_6, 2, 0x34F),
    DN(___, 0, 0x481),
    DN(___, 0, 0x481),
    DN(___, 0, 0x481),
    DN(___, 0, 0x481),
    DN(___, 0, 0x481),
    DN(___, 0, 0xA02),
    DN(___, 0, 0xA02),
    DN(Ds6, 2, 0x360),
    DN(___, 0, 0x481),
    DN(D_6, 2, 0x330),
    DN(Ds6, 2, 0xC07),
    DN(C_6, 2, 0x330),
    DN(D_6, 2, 0xC07),
    DN(As5, 2, 0x360),
    DN(C_6, 2, 0xC07),
};
static const unsigned char song_pattern_5[] = {
    DN(C_4, 4, 0x443),
    DN(___, 0, 0x443),
    DN(___, 0, 0x443),
    DN(___, 0, 0x443),
    DN(___, 0, 0x443),
    DN(___, 0, 0x443),
    DN(___, 0, 0x443),
    DN(___, 0, 0x443),
    DN(___, 0, 0x443),
    DN(___, 0, 0x443),
    DN(___, 0, 0x443),
    DN(___, 0, 0x443),
    DN(___, 0, 0x443),
    DN(___, 0, 0x443),
    DN(___, 0, 0x443),
    DN(___, 0, 0x443),
    DN(___, 0, 0x443),
    DN(___, 0, 0x443),
    DN(___, 0, 0x443),
    DN(___, 0, 0x443),
    DN(___, 0, 0x443),
    DN(___, 0, 0x443),
    DN(___, 0, 0x443),
    DN(___, 0, 0x443),
    DN(___, 0, 0x443),
    DN(___, 0, 0x443),
    DN(___, 0, 0x443),
    DN(___, 0, 0x443),
    DN(___, 0, 0x443),
    DN(___, 0, 0x443),
    DN(___, 0, 0x443),
    DN(___, 0, 0x443),
    DN(Gs3, 4, 0x34F),
    DN(___, 0, 0x443),
    DN(___, 0, 0x443),
    DN(___, 0, 0x443),
    DN(___, 0, 0x443),
    DN(___, 0, 0x443),
    DN(___, 0, 0x443),
    DN(___, 0, 0x443),
    DN(___, 0, 0x443),
    DN(___, 0, 0x443),
    DN(___, 0, 0x443),
    DN(___, 0, 0x443),
    DN(___, 0, 0x443),
    DN(___, 0, 0x443),
    DN(___, 0, 0x443),
    DN(___, 0, 0x443),
    DN(As3, 4, 0x34F),
    DN(___, 0, 0x443),
    DN(___, 0, 0x443),
    DN(___, 0, 0x443),
    DN(___, 0, 0x443),
    DN(___, 0, 0x443),
    DN(___, 0, 0x443),
    DN(___, 0, 0x443),
    DN(___, 0, 0x443),
    DN(___, 0, 0x443),
    DN(___, 0, 0x443),
    DN(___, 0, 0x443),
    DN(___, 0, 0x443),
    DN(___, 0, 0x443),
    DN(___, 0, 0x443),
    DN(___, 0, 0x443),
};
static const unsigned char song_pattern_6[] = {
    DN(___, 0, 0xE00),
    DN(___, 0, 0x000),
    DN(___, 0, 0x000),
    DN(___, 0, 0x000),
    DN(___, 0, 0x000),
    DN(___, 0, 0x000),
    DN(___, 0, 0x000),
    DN(___, 0, 0x000),
    DN(___, 0, 0x000),
    DN(___, 0, 0x000),
    DN(___, 0, 0x000),
    DN(___, 0, 0x000),
    DN(___, 0, 0x000),
    DN(___, 0, 0x000),
    DN(___, 0, 0x000),
    DN(___, 0, 0x000),
    DN(___, 0, 0x000),
    DN(___, 0, 0x000),
    DN(___, 0, 0x000),
    DN(___, 0, 0x000),
    DN(___, 0, 0x000),
    DN(___, 0, 0x000),
    DN(___, 0, 0x000),
    DN(___, 0, 0x000),
    DN(___, 0, 0x000),
    DN(___, 0, 0x000),
    DN(___, 0, 0x000),
    DN(___, 0, 0x000),
    DN(___, 0, 0x000),
    DN(___, 0, 0x000),
    DN(___, 0, 0x000),
    DN(___, 0, 0x000),
    DN(___, 0, 0x000),
    DN(___, 0, 0x000),
    DN(___, 0, 0x000),
    DN(___, 0, 0x000),
    DN(___, 0, 0x000),
    DN(___, 0, 0x000),
    DN(___, 0, 0x000),
    DN(___, 0, 0x000),
    DN(___, 0, 0x000),
    DN(___, 0, 0x000),
    DN(___, 0, 0x000),
    DN(___, 0, 0x000),
    DN(___, 0, 0x000),
    DN(___, 0, 0x000),
    DN(___, 0, 0x000),
    DN(___, 0, 0x000),
    DN(___, 0, 0x000),
    DN(___, 0, 0x000),
    DN(___, 0, 0x000),
    DN(___, 0, 0x000),
    DN(___, 0, 0x000),
    DN(___, 0, 0x000),
    DN(___, 0, 0x000),
    DN(___, 0, 0x000),
    DN(___, 0, 0x000),
    DN(___, 0, 0x000),
    DN(___, 0, 0x000),
    DN(___, 0, 0x000),
    DN(___, 0, 0x000),
    DN(___, 0, 0x000),
    DN(___, 0, 0x000),
    DN(___, 0, 0x000),
};
static const unsigned char song_pattern_7[] = {
    DN(G_5, 2, 0x481),
    DN(___, 0, 0x481),
    DN(As5, 2, 0x30F),
    DN(G_5, 2, 0xC07),
    DN(C_6, 2, 0x338),
    DN(___, 0, 0x481),
    DN(___, 0, 0x481),
    DN(___, 0, 0x481),
    DN(___, 0, 0x481),
    DN(___, 0, 0x481),
    DN(___, 0, 0x481),
    DN(___, 0, 0x481),
    DN(___, 0, 0x482),
    DN(___, 0, 0x482),
    DN(___, 0, 0x482),
    DN(___, 0, 0x482),
    DN(___, 0, 0xA01),
    DN(___, 0, 0x482),
    DN(___, 0, 0xA01),
    DN(___, 0, 0x482),
    DN(___, 0, 0xA01),
    DN(___, 0, 0x482),
    DN(___, 0, 0xA01),
    DN(___, 0, 0xA01),
    DN(Ds6, 2, 0x310),
    DN(___, 0, 0x481),
    DN(D_6, 2, 0x330),
    DN(Ds6, 2, 0xC07),
    DN(Ds6, 2, 0x330),
    DN(D_6, 2, 0xC07),
    DN(D_6, 2, 0x330),
    DN(Ds6, 2, 0xC07),
    DN(Ds6, 2, 0x340),
    DN(___, 0, 0x481),
    DN(___, 0, 0x481),
    DN(___, 0, 0x481),
    DN(___, 0, 0xA02),
    DN(___, 0, 0x481),
    DN(___, 0, 0xA02),
    DN(___, 0, 0xA02),
    DN(D_6, 2, 0x340),
    DN(___, 0, 0x481),
    DN(Ds6, 2, 0x350),
    DN(D_6, 2, 0xC07),
    DN(D_6, 2, 0x340),
    DN(Ds6, 2, 0xC07),
    DN(C_6, 2, 0x350),
    DN(D_6, 2, 0xC07),
    DN(D_6, 2, 0x34F),
    DN(___, 0, 0x481),
    DN(___, 0, 0x481),
    DN(___, 0, 0x481),
    DN(___, 0, 0x481),
    DN(___, 0, 0x481),
    DN(___, 0, 0xA02),
    DN(___, 0, 0xA02),
    DN(Ds6, 2, 0x360),
    DN(___, 0, 0x481),
    DN(D_6, 2, 0x330),
    DN(Ds6, 2, 0xC07),
    DN(C_6, 2, 0x330),
    DN(D_6, 2, 0xC07),
    DN(As5, 2, 0x360),
    DN(C_6, 2, 0xC07),
};
static const unsigned char song_pattern_8[] = {
    DN(C_4, 4, 0x443),
    DN(___, 0, 0x443),
    DN(___, 0, 0x443),
    DN(___, 0, 0x443),
    DN(___, 0, 0x443),
    DN(___, 0, 0x443),
    DN(___, 0, 0x443),
    DN(___, 0, 0x443),
    DN(___, 0, 0x443),
    DN(___, 0, 0x443),
    DN(___, 0, 0x443),
    DN(___, 0, 0x443),
    DN(G_3, 4, 0x443),
    DN(___, 0, 0x443),
    DN(___, 0, 0x443),
    DN(___, 0, 0x443),
    DN(C_4, 4, 0x443),
    DN(___, 0, 0x443),
    DN(___, 0, 0x443),
    DN(___, 0, 0x443),
    DN(___, 0, 0x443),
    DN(___, 0, 0x443),
    DN(___, 0, 0x443),
    DN(___, 0, 0x443),
    DN(___, 0, 0x443),
    DN(___, 0, 0x443),
    DN(___, 0, 0x443),
    DN(___, 0, 0x443),
    DN(G_3, 4, 0x443),
    DN(___, 0, 0x443),
    DN(___, 0, 0x443),
    DN(___, 0, 0x443),
    DN(Gs3, 4, 0x34F),
    DN(___, 0, 0x443),
    DN(___, 0, 0x443),
    DN(___, 0, 0x443),
    DN(___, 0, 0x443),
    DN(___, 0, 0x443),
    DN(___, 0, 0x443),
    DN(___, 0, 0x443),
    DN(___, 0, 0x443),
    DN(___, 0, 0x443),
    DN(___, 0, 0x443),
    DN(___, 0, 0x443),
    DN(Ds3, 4, 0x443),
    DN(___, 0, 0x443),
    DN(___, 0, 0x443),
    DN(___, 0, 0x443),
    DN(As3, 4, 0x34F),
    DN(___, 0, 0x443),
    DN(___, 0, 0x443),
    DN(___, 0, 0x443),
    DN(___, 0, 0x443),
    DN(___, 0, 0x443),
    DN(___, 0, 0x443),
    DN(___, 0, 0x443),
    DN(F_3, 4, 0x443),
    DN(___, 0, 0x443),
    DN(F_4, 4, 0x443),
    DN(___, 0, 0x443),
    DN(As3, 4, 0x443),
    DN(___, 0, 0x443),
    DN(As4, 4, 0x443),
    DN(___, 0, 0x443),
};
static const unsigned char song_pattern_9[] = {
    DN(___, 0, 0xF05),
    DN(___, 0, 0x000),
    DN(___, 0, 0x000),
    DN(___, 0, 0x000),
    DN(___, 0, 0x000),
    DN(___, 0, 0x000),
    DN(___, 0, 0x000),
    DN(___, 0, 0x000),
    DN(___, 0, 0x000),
    DN(___, 0, 0x000),
    DN(___, 0, 0x000),
    DN(___, 0, 0x000),
    DN(___, 0, 0x000),
    DN(___, 0, 0x000),
    DN(___, 0, 0x000),
    DN(___, 0, 0x000),
    DN(___, 0, 0x000),
    DN(___, 0, 0x000),
    DN(___, 0, 0x000),
    DN(___, 0, 0x000),
    DN(___, 0, 0x000),
    DN(___, 0, 0x000),
    DN(___, 0, 0x000),
    DN(___, 0, 0x000),
    DN(___, 0, 0x000),
    DN(___, 0, 0x000),
    DN(___, 0, 0x000),
    DN(___, 0, 0x000),
    DN(___, 0, 0x000),
    DN(___, 0, 0x000),
    DN(___, 0, 0x000),
    DN(___, 0, 0x000),
    DN(D_7, 8, 0x000),
    DN(___, 0, 0x000),
    DN(___, 0, 0x000),
    DN(___, 0, 0x000),
    DN(___, 0, 0x000),
    DN(___, 0, 0x000),
    DN(___, 0, 0x000),
    DN(___, 0, 0x000),
    DN(___, 0, 0x000),
    DN(___, 0, 0x000),
    DN(___, 0, 0x000),
    DN(___, 0, 0x000),
    DN(___, 0, 0x000),
    DN(___, 0, 0x000),
    DN(___, 0, 0x000),
    DN(___, 0, 0x000),
    DN(E_7, 8, 0x000),
    DN(___, 0, 0x000),
    DN(___, 0, 0x000),
    DN(___, 0, 0x000),
    DN(___, 0, 0x000),
    DN(___, 0, 0x000),
    DN(___, 0, 0x000),
    DN(___, 0, 0x000),
    DN(___, 0, 0x000),
    DN(___, 0, 0x000),
    DN(___, 0, 0x000),
    DN(___, 0, 0x000),
    DN(___, 0, 0x000),
    DN(___, 0, 0x000),
    DN(___, 0, 0x000),
    DN(___, 0, 0x000),
};
static const unsigned char song_pattern_10[] = {
    DN(C_7, 10, 0x027),
    DN(___, 0, 0x027),
    DN(___, 0, 0x027),
    DN(___, 0, 0x027),
    DN(C_7, 9, 0x037),
    DN(C_7, 10, 0x037),
    DN(C_7, 9, 0x037),
    DN(C_7, 10, 0x037),
    DN(___, 0, 0x037),
    DN(___, 0, 0x037),
    DN(___, 0, 0x037),
    DN(___, 0, 0x037),
    DN(C_7, 9, 0x037),
    DN(C_7, 10, 0x037),
    DN(C_7, 9, 0x037),
    DN(C_7, 10, 0x037),
    DN(C_7, 10, 0x037),
    DN(___, 0, 0x027),
    DN(___, 0, 0x027),
    DN(___, 0, 0x027),
    DN(C_7, 9, 0x037),
    DN(C_7, 10, 0x037),
    DN(C_7, 9, 0x037),
    DN(C_7, 10, 0x037),
    DN(___, 0, 0x037),
    DN(___, 0, 0x037),
    DN(___, 0, 0x037),
    DN(___, 0, 0x037),
    DN(C_7, 9, 0x037),
    DN(C_7, 10, 0x037),
    DN(C_7, 9, 0x037),
    DN(C_7, 10, 0x037),
    DN(C_7, 10, 0x028),
    DN(___, 0, 0x028),
    DN(___, 0, 0x028),
    DN(___, 0, 0x028),
    DN(C_7, 9, 0x038),
    DN(C_7, 10, 0x038),
    DN(C_7, 9, 0x038),
    DN(C_7, 10, 0x038),
    DN(___, 0, 0x038),
    DN(___, 0, 0x038),
    DN(___, 0, 0x038),
    DN(___, 0, 0x038),
    DN(C_7, 9, 0x038),
    DN(C_7, 10, 0x038),
    DN(C_7, 9, 0x038),
    DN(C_7, 10, 0x038),
    DN(As6, 10, 0x027),
    DN(___, 0, 0x027),
    DN(___, 0, 0x027),
    DN(___, 0, 0x027),
    DN(As6, 9, 0x047),
    DN(As6, 10, 0x047),
    DN(As6, 9, 0x047),
    DN(As6, 10, 0x047),
    DN(___, 0, 0x047),
    DN(___, 0, 0x047),
    DN(___, 0, 0x047),
    DN(___, 0, 0x047),
    DN(As6, 9, 0x047),
    DN(As6, 10, 0x047),
    DN(As6, 9, 0x047),
    DN(As6, 10, 0x047),
};
static const unsigned char song_pattern_11[] = {
    DN(C_4, 5, 0x442),
    DN(___, 0, 0x442),
    DN(C_5, 5, 0x442),
    DN(___, 0, 0x442),
    DN(C_4, 5, 0x442),
    DN(___, 0, 0x442),
    DN(C_5, 5, 0x442),
    DN(___, 0, 0x442),
    DN(C_4, 5, 0x442),
    DN(___, 0, 0x442),
    DN(C_5, 5, 0x442),
    DN(___, 0, 0x442),
    DN(C_4, 5, 0x442),
    DN(___, 0, 0x442),
    DN(C_5, 5, 0x442),
    DN(___, 0, 0x442),
    DN(C_4, 5, 0x442),
    DN(___, 0, 0x442),
    DN(C_5, 5, 0x442),
    DN(___, 0, 0x442),
    DN(C_4, 5, 0x442),
    DN(___, 0, 0x442),
    DN(C_5, 5, 0x442),
    DN(___, 0, 0x442),
    DN(C_4, 5, 0x442),
    DN(___, 0, 0x442),
    DN(C_5, 5, 0x442),
    DN(___, 0, 0x442),
    DN(C_4, 5, 0x442),
    DN(___, 0, 0x442),
    DN(C_5, 5, 0x442),
    DN(___, 0, 0x442),
    DN(Gs3, 5, 0x442),
    DN(___, 0, 0x442),
    DN(Gs4, 5, 0x442),
    DN(___, 0, 0x442),
    DN(Gs3, 5, 0x442),
    DN(___, 0, 0x442),
    DN(Gs4, 5, 0x442),
    DN(___, 0, 0x442),
    DN(Gs3, 5, 0x442),
    DN(___, 0, 0x442),
    DN(Gs4, 5, 0x442),
    DN(___, 0, 0x442),
    DN(Gs3, 5, 0x442),
    DN(___, 0, 0x442),
    DN(Gs4, 5, 0x442),
    DN(___, 0, 0x442),
    DN(As3, 5, 0x442),
    DN(___, 0, 0x442),
    DN(As4, 5, 0x442),
    DN(___, 0, 0x442),
    DN(As3, 5, 0x442),
    DN(___, 0, 0x442),
    DN(As4, 5, 0x442),
    DN(___, 0, 0x442),
    DN(As3, 5, 0x442),
    DN(___, 0, 0x442),
    DN(As4, 5, 0x442),
    DN(___, 0, 0x442),
    DN(As3, 5, 0x442),
    DN(___, 0, 0x442),
    DN(As4, 5, 0x442),
    DN(___, 0, 0x442),
};
static const unsigned char song_pattern_12[] = {
    DN(F_5, 1, 0x000),
    DN(___, 0, 0x000),
    DN(F_6, 2, 0x000),
    DN(___, 0, 0x000),
    DN(As5, 3, 0x000),
    DN(___, 0, 0x000),
    DN(F_6, 2, 0x000),
    DN(___, 0, 0x000),
    DN(F_5, 1, 0x000),
    DN(___, 0, 0x000),
    DN(F_5, 1, 0x000),
    DN(___, 0, 0x000),
    DN(As5, 3, 0x000),
    DN(___, 0, 0x000),
    DN(F_5, 1, 0x000),
    DN(F_6, 2, 0x000),
    DN(F_5, 1, 0x000),
    DN(___, 0, 0x000),
    DN(F_6, 2, 0x000),
    DN(___, 0, 0x000),
    DN(As5, 3, 0x000),
    DN(___, 0, 0x000),
    DN(F_6, 2, 0x000),
    DN(___, 0, 0x000),
    DN(F_5, 1, 0x000),
    DN(___, 0, 0x000),
    DN(F_5, 1, 0x000),
    DN(___, 0, 0x000),
    DN(As5, 3, 0x000),
    DN(___, 0, 0x000),
    DN(F_5, 1, 0x000),
    DN(F_6, 2, 0x000),
    DN(F_5, 1, 0x000),
    DN(___, 0, 0x000),
    DN(F_6, 2, 0x000),
    DN(___, 0, 0x000),
    DN(As5, 3, 0x000),
    DN(___, 0, 0x000),
    DN(F_6, 2, 0x000),
    DN(___, 0, 0x000),
    DN(F_5, 1, 0x000),
    DN(___, 0, 0x000),
    DN(F_5, 1, 0x000),
    DN(___, 0, 0x000),
    DN(As5, 3, 0x000),
    DN(___, 0, 0x000),
    DN(F_5, 1, 0x000),
    DN(F_6, 2, 0x000),
    DN(F_5, 1, 0x000),
    DN(___, 0, 0x000),
    DN(F_6, 2, 0x000),
    DN(___, 0, 0x000),
    DN(As5, 3, 0x000),
    DN(___, 0, 0x000),
    DN(F_6, 2, 0x000),
    DN(___, 0, 0x000),
    DN(F_5, 1, 0x000),
    DN(___, 0, 0x000),
    DN(F_5, 1, 0x000),
    DN(___, 0, 0x000),
    DN(As5, 3, 0x000),
    DN(___, 0, 0x000),
    DN(F_5, 1, 0x000),
    DN(F_6, 2, 0x000),
};
static const unsigned char song_pattern_13[] = {
    DN(G_5, 2, 0x481),
    DN(___, 0, 0x481),
    DN(As5, 2, 0x30F),
    DN(G_5, 2, 0xC07),
    DN(C_6, 2, 0x338),
    DN(___, 0, 0x481),
    DN(___, 0, 0x481),
    DN(___, 0, 0x481),
    DN(___, 0, 0x481),
    DN(___, 0, 0x481),
    DN(___, 0, 0x481),
    DN(___, 0, 0x481),
    DN(___, 0, 0x482),
    DN(___, 0, 0x482),
    DN(___, 0, 0x482),
    DN(___, 0, 0x482),
    DN(___, 0, 0xA01),
    DN(___, 0, 0x482),
    DN(___, 0, 0xA01),
    DN(___, 0, 0x482),
    DN(___, 0, 0xA01),
    DN(___, 0, 0x482),
    DN(___, 0, 0xA01),
    DN(___, 0, 0xA01),
    DN(Ds6, 2, 0x310),
    DN(___, 0, 0x481),
    DN(D_6, 2, 0x330),
    DN(Ds6, 2, 0xC07),
    DN(Ds6, 2, 0x330),
    DN(D_6, 2, 0xC07),
    DN(D_6, 2, 0x330),
    DN(Ds6, 2, 0xC07),
    DN(Ds6, 2, 0x340),
    DN(___, 0, 0x481),
    DN(___, 0, 0x481),
    DN(___, 0, 0x481),
    DN(___, 0, 0xA02),
    DN(___, 0, 0x481),
    DN(___, 0, 0xA02),
    DN(___, 0, 0xA02),
    DN(D_6, 2, 0x340),
    DN(___, 0, 0x481),
    DN(Ds6, 2, 0x350),
    DN(D_6, 2, 0xC07),
    DN(D_6, 2, 0x340),
    DN(Ds6, 2, 0xC07),
    DN(C_6, 2, 0x350),
    DN(D_6, 2, 0xC07),
    DN(D_6, 2, 0x34F),
    DN(___, 0, 0x481),
    DN(___, 0, 0x481),
    DN(___, 0, 0x481),
    DN(___, 0, 0x481),
    DN(___, 0, 0x481),
    DN(___, 0, 0xA02),
    DN(___, 0, 0xA02),
    DN(___, 0, 0xA02),
    DN(___, 0, 0xA02),
    DN(D_6, 2, 0x481),
    DN(___, 0, 0x481),
    DN(As5, 2, 0x481),
    DN(___, 0, 0xA01),
    DN(___, 0, 0xA01),
    DN(___, 0, 0xA01),
};
static const unsigned char song_pattern_14[] = {
    DN(C_4, 5, 0x442),
    DN(___, 0, 0x442),
    DN(C_5, 5, 0x442),
    DN(___, 0, 0x442),
    DN(C_4, 5, 0x442),
    DN(___, 0, 0x442),
    DN(C_5, 5, 0x442),
    DN(___, 0, 0x442),
    DN(C_4, 5, 0x442),
    DN(___, 0, 0x442),
    DN(C_5, 5, 0x442),
    DN(___, 0, 0x442),
    DN(C_4, 5, 0x442),
    DN(___, 0, 0x442),
    DN(C_5, 5, 0x442),
    DN(___, 0, 0x442),
    DN(C_4, 5, 0x442),
    DN(___, 0, 0x442),
    DN(C_5, 5, 0x442),
    DN(___, 0, 0x442),
    DN(C_4, 5, 0x442),
    DN(___, 0, 0x442),
    DN(C_5, 5, 0x442),
    DN(___, 0, 0x442),
    DN(C_4, 5, 0x442),
    DN(___, 0, 0x442),
    DN(C_5, 5, 0x442),
    DN(___, 0, 0x442),
    DN(C_4, 5, 0x442),
    DN(___, 0, 0x442),
    DN(C_5, 5, 0x442),
    DN(___, 0, 0x442),
    DN(Gs3, 5, 0x442),
    DN(___, 0, 0x442),
    DN(Gs4, 5, 0x442),
    DN(___, 0, 0x442),
    DN(Gs3, 5, 0x442),
    DN(___, 0, 0x442),
    DN(Gs4, 5, 0x442),
    DN(___, 0, 0x442),
    DN(Gs3, 5, 0x442),
    DN(___, 0, 0x442),
    DN(Gs4, 5, 0x442),
    DN(___, 0, 0x442),
    DN(Gs3, 5, 0x442),
    DN(___, 0, 0x442),
    DN(Gs4, 5, 0x442),
    DN(___, 0, 0x442),
    DN(As4, 5, 0xC0F),
    DN(___, 0, 0xC0A),
    DN(___, 0, 0xC05),
    DN(___, 0, 0xC00),
    DN(As4, 5, 0xC0C),
    DN(___, 0, 0xC08),
    DN(___, 0, 0xC04),
    DN(___, 0, 0xC00),
    DN(As5, 5, 0x210),
    DN(___, 0, 0x210),
    DN(___, 0, 0x210),
    DN(___, 0, 0x210),
    DN(As4, 5, 0x442),
    DN(___, 0, 0x442),
    DN(F_4, 5, 0x442),
    DN(___, 0, 0x442),
};
static const unsigned char song_pattern_15[] = {
    DN(F_5, 1, 0x000),
    DN(___, 0, 0x000),
    DN(F_6, 2, 0x000),
    DN(___, 0, 0x000),
    DN(As5, 3, 0x000),
    DN(___, 0, 0x000),
    DN(F_6, 2, 0x000),
    DN(___, 0, 0x000),
    DN(F_5, 1, 0x000),
    DN(___, 0, 0x000),
    DN(F_5, 1, 0x000),
    DN(___, 0, 0x000),
    DN(As5, 3, 0x000),
    DN(___, 0, 0x000),
    DN(F_5, 1, 0x000),
    DN(F_6, 2, 0x000),
    DN(F_5, 1, 0x000),
    DN(___, 0, 0x000),
    DN(F_6, 2, 0x000),
    DN(___, 0, 0x000),
    DN(As5, 3, 0x000),
    DN(___, 0, 0x000),
    DN(F_6, 2, 0x000),
    DN(___, 0, 0x000),
    DN(F_5, 1, 0x000),
    DN(___, 0, 0x000),
    DN(F_5, 1, 0x000),
    DN(___, 0, 0x000),
    DN(As5, 3, 0x000),
    DN(___, 0, 0x000),
    DN(F_5, 1, 0x000),
    DN(F_6, 2, 0x000),
    DN(F_5, 1, 0x000),
    DN(___, 0, 0x000),
    DN(F_6, 2, 0x000),
    DN(___, 0, 0x000),
    DN(As5, 3, 0x000),
    DN(___, 0, 0x000),
    DN(F_6, 2, 0x000),
    DN(___, 0, 0x000),
    DN(F_5, 1, 0x000),
    DN(___, 0, 0x000),
    DN(F_5, 1, 0x000),
    DN(___, 0, 0x000),
    DN(As5, 3, 0x000),
    DN(___, 0, 0x000),
    DN(F_5, 1, 0x000),
    DN(F_6, 2, 0x000),
    DN(F_5, 1, 0x000),
    DN(___, 0, 0x000),
    DN(___, 0, 0x000),
    DN(___, 0, 0x000),
    DN(F_6, 2, 0x000),
    DN(___, 0, 0x000),
    DN(___, 0, 0x000),
    DN(___, 0, 0x000),
    DN(F_6, 2, 0x000),
    DN(___, 0, 0x000),
    DN(F_6, 2, 0x000),
    DN(___, 0, 0x000),
    DN(As5, 3, 0x000),
    DN(___, 0, 0x000),
    DN(As5, 3, 0x000),
    DN(___, 0, 0x000),
};
static const unsigned char song_pattern_16[] = {
    DN(Ds7, 10, 0x047),
    DN(___, 0, 0x047),
    DN(___, 0, 0x047),
    DN(___, 0, 0x047),
    DN(Ds7, 9, 0x047),
    DN(Ds7, 10, 0x047),
    DN(Ds7, 9, 0x047),
    DN(Ds7, 10, 0x047),
    DN(C_7, 10, 0x038),
    DN(___, 0, 0x038),
    DN(___, 0, 0x038),
    DN(___, 0, 0x038),
    DN(C_7, 9, 0x038),
    DN(C_7, 10, 0x038),
    DN(C_7, 9, 0x038),
    DN(C_7, 10, 0x038),
    DN(C_7, 10, 0x037),
    DN(___, 0, 0x037),
    DN(___, 0, 0x037),
    DN(___, 0, 0x037),
    DN(C_7, 9, 0x037),
    DN(C_7, 10, 0x037),
    DN(C_7, 9, 0x037),
    DN(C_7, 10, 0x037),
    DN(As6, 10, 0x047),
    DN(___, 0, 0x047),
    DN(___, 0, 0x047),
    DN(___, 0, 0x047),
    DN(As6, 9, 0x047),
    DN(As6, 10, 0x047),
    DN(As6, 9, 0x047),
    DN(As6, 10, 0x047),
    DN(Ds7, 10, 0x047),
    DN(___, 0, 0x047),
    DN(___, 0, 0x047),
    DN(___, 0, 0x047),
    DN(Ds7, 9, 0x047),
    DN(Ds7, 10, 0x047),
    DN(Ds7, 9, 0x047),
    DN(Ds7, 10, 0x047),
    DN(C_7, 10, 0x038),
    DN(___, 0, 0x038),
    DN(___, 0, 0x038),
    DN(___, 0, 0x038),
    DN(C_7, 9, 0x038),
    DN(C_7, 10, 0x038),
    DN(C_7, 9, 0x038),
    DN(C_7, 10, 0x038),
    DN(C_7, 10, 0x037),
    DN(___, 0, 0x037),
    DN(___, 0, 0x037),
    DN(___, 0, 0x037),
    DN(C_7, 9, 0x037),
    DN(C_7, 10, 0x037),
    DN(C_7, 9, 0x037),
    DN(C_7, 10, 0x037),
    DN(As6, 10, 0x047),
    DN(___, 0, 0x047),
    DN(___, 0, 0x047),
    DN(___, 0, 0x047),
    DN(As6, 9, 0x047),
    DN(As6, 10, 0x047),
    DN(As6, 9, 0x047),
    DN(As6, 10, 0x047),
};
static const unsigned char song_pattern_17[] = {
    DN(G_5, 2, 0x481),
    DN(___, 0, 0x481),
    DN(___, 0, 0xA02),
    DN(___, 0, 0xA02),
    DN(Ds5, 2, 0x481),
    DN(___, 0, 0x481),
    DN(___, 0, 0xA02),
    DN(___, 0, 0x481),
    DN(___, 0, 0xA02),
    DN(___, 0, 0xA02),
    DN(Gs5, 2, 0x481),
    DN(___, 0, 0xA02),
    DN(___, 0, 0xA02),
    DN(Gs5, 2, 0xC1E),
    DN(As5, 2, 0x30F),
    DN(___, 0, 0x30F),
    DN(G_5, 2, 0x481),
    DN(___, 0, 0x481),
    DN(___, 0, 0x481),
    DN(___, 0, 0x481),
    DN(___, 0, 0xA02),
    DN(___, 0, 0x481),
    DN(___, 0, 0xA02),
    DN(___, 0, 0xA02),
    DN(F_5, 2, 0x31F),
    DN(___, 0, 0x481),
    DN(___, 0, 0xA02),
    DN(___, 0, 0x481),
    DN(___, 0, 0xA02),
    DN(___, 0, 0x481),
    DN(___, 0, 0xA02),
    DN(___, 0, 0xA02),
    DN(G_5, 2, 0x481),
    DN(___, 0, 0x481),
    DN(___, 0, 0xA02),
    DN(___, 0, 0xA02),
    DN(Ds5, 2, 0x481),
    DN(___, 0, 0x481),
    DN(___, 0, 0xA02),
    DN(___, 0, 0x481),
    DN(___, 0, 0xA02),
    DN(___, 0, 0x481),
    DN(___, 0, 0x202),
    DN(___, 0, 0x202),
    DN(Ds5, 2, 0xC09),
    DN(___, 0, 0x481),
    DN(___, 0, 0xA02),
    DN(___, 0, 0x481),
    DN(G_5, 2, 0xC09),
    DN(___, 0, 0x481),
    DN(___, 0, 0xA02),
    DN(___, 0, 0x481),
    DN(Ds5, 2, 0xC0A),
    DN(___, 0, 0x481),
    DN(___, 0, 0xA02),
    DN(___, 0, 0x481),
    DN(D_5, 2, 0x30F),
    DN(___, 0, 0x30F),
    DN(___, 0, 0x481),
    DN(___, 0, 0x481),
    DN(F_5, 2, 0x31F),
    DN(___, 0, 0x481),
    DN(___, 0, 0x481),
    DN(___, 0, 0x481),
};
static const unsigned char song_pattern_18[] = {
    DN(Ds4, 4, 0x4A2),
    DN(___, 0, 0x4A2),
    DN(Ds4, 4, 0x4A2),
    DN(___, 0, 0x4A2),
    DN(Ds5, 4, 0x4A2),
    DN(___, 0, 0x4A2),
    DN(Ds4, 4, 0x4A2),
    DN(___, 0, 0x4A2),
    DN(Gs4, 4, 0x4A2),
    DN(___, 0, 0x4A2),
    DN(Gs4, 4, 0x4A2),
    DN(___, 0, 0x4A2),
    DN(Gs5, 4, 0x4A2),
    DN(___, 0, 0x4A2),
    DN(Gs4, 4, 0x4A2),
    DN(___, 0, 0x4A2),
    DN(C_5, 4, 0x4A2),
    DN(___, 0, 0x4A2),
    DN(C_5, 4, 0x4A2),
    DN(___, 0, 0x4A2),
    DN(C_6, 4, 0x4A2),
    DN(___, 0, 0x4A2),
    DN(C_5, 4, 0x4A2),
    DN(___, 0, 0x4A2),
    DN(As4, 4, 0x4A2),
    DN(___, 0, 0x4A2),
    DN(As4, 4, 0x4A2),
    DN(___, 0, 0x4A2),
    DN(As5, 4, 0x4A2),
    DN(___, 0, 0x4A2),
    DN(As4, 4, 0x4A2),
    DN(___, 0, 0x4A2),
    DN(Ds4, 4, 0x4A2),
    DN(___, 0, 0x4A2),
    DN(Ds4, 4, 0x4A2),
    DN(___, 0, 0x4A2),
    DN(Ds5, 4, 0x4A2),
    DN(___, 0, 0x4A2),
    DN(Ds4, 4, 0x4A2),
    DN(___, 0, 0x4A2),
    DN(Gs4, 4, 0x4A2),
    DN(___, 0, 0x4A2),
    DN(Gs4, 4, 0x4A2),
    DN(___, 0, 0x4A2),
    DN(Gs5, 4, 0x4A2),
    DN(___, 0, 0x4A2),
    DN(Gs4, 4, 0x4A2),
    DN(___, 0, 0x4A2),
    DN(C_5, 4, 0x4A2),
    DN(___, 0, 0x4A2),
    DN(C_5, 4, 0x4A2),
    DN(___, 0, 0x4A2),
    DN(C_6, 4, 0x4A2),
    DN(___, 0, 0x4A2),
    DN(C_5, 4, 0x4A2),
    DN(___, 0, 0x4A2),
    DN(As4, 4, 0x4A2),
    DN(___, 0, 0x4A2),
    DN(As4, 4, 0x4A2),
    DN(___, 0, 0x4A2),
    DN(As5, 4, 0x4A2),
    DN(___, 0, 0x4A2),
    DN(As4, 4, 0x4A2),
    DN(___, 0, 0x4A2),
};
static const unsigned char song_pattern_19[] = {
    DN(F_5, 1, 0x000),
    DN(___, 0, 0x000),
    DN(F_6, 2, 0x000),
    DN(___, 0, 0x000),
    DN(F_6, 2, 0x000),
    DN(___, 0, 0x000),
    DN(F_5, 1, 0x000),
    DN(___, 0, 0x000),
    DN(As5, 3, 0x000),
    DN(___, 0, 0x000),
    DN(F_6, 2, 0x000),
    DN(F_6, 2, 0x000),
    DN(F_5, 1, 0x000),
    DN(___, 0, 0x000),
    DN(As5, 3, 0x000),
    DN(___, 0, 0x000),
    DN(F_5, 1, 0x000),
    DN(___, 0, 0x000),
    DN(As5, 3, 0x000),
    DN(___, 0, 0x000),
    DN(F_5, 1, 0x000),
    DN(___, 0, 0x000),
    DN(F_6, 2, 0x000),
    DN(___, 0, 0x000),
    DN(As5, 3, 0x000),
    DN(___, 0, 0x000),
    DN(F_6, 2, 0x000),
    DN(F_6, 2, 0x000),
    DN(F_5, 1, 0x000),
    DN(___, 0, 0x000),
    DN(F_5, 1, 0x000),
    DN(___, 0, 0x000),
    DN(F_5, 1, 0x000),
    DN(___, 0, 0x000),
    DN(F_6, 2, 0x000),
    DN(___, 0, 0x000),
    DN(F_6, 2, 0x000),
    DN(___, 0, 0x000),
    DN(F_5, 1, 0x000),
    DN(___, 0, 0x000),
    DN(As5, 3, 0x000),
    DN(___, 0, 0x000),
    DN(F_6, 2, 0x000),
    DN(F_6, 2, 0x000),
    DN(F_5, 1, 0x000),
    DN(___, 0, 0x000),
    DN(As5, 3, 0x000),
    DN(___, 0, 0x000),
    DN(F_5, 1, 0x000),
    DN(___, 0, 0x000),
    DN(As5, 3, 0x000),
    DN(___, 0, 0x000),
    DN(F_5, 1, 0x000),
    DN(___, 0, 0x000),
    DN(F_6, 2, 0x000),
    DN(___, 0, 0x000),
    DN(As5, 3, 0x000),
    DN(___, 0, 0x000),
    DN(F_6, 2, 0x000),
    DN(F_6, 2, 0x000),
    DN(F_5, 1, 0x000),
    DN(___, 0, 0x000),
    DN(F_5, 1, 0x000),
    DN(___, 0, 0x000),
};
static const unsigned char song_pattern_20[] = {
    DN(G_5, 2, 0x481),
    DN(___, 0, 0x481),
    DN(___, 0, 0xA02),
    DN(___, 0, 0xA02),
    DN(Ds5, 2, 0x481),
    DN(___, 0, 0x481),
    DN(___, 0, 0xA02),
    DN(___, 0, 0x481),
    DN(___, 0, 0xA02),
    DN(___, 0, 0xA02),
    DN(Gs5, 2, 0x481),
    DN(___, 0, 0xA02),
    DN(___, 0, 0xA02),
    DN(Gs5, 2, 0xC1E),
    DN(As5, 2, 0x30F),
    DN(___, 0, 0x30F),
    DN(G_5, 2, 0x481),
    DN(___, 0, 0x481),
    DN(___, 0, 0x481),
    DN(___, 0, 0x481),
    DN(___, 0, 0xA02),
    DN(___, 0, 0x481),
    DN(___, 0, 0xA02),
    DN(___, 0, 0xA02),
    DN(F_5, 2, 0x31F),
    DN(___, 0, 0x481),
    DN(___, 0, 0xA02),
    DN(___, 0, 0x481),
    DN(___, 0, 0xA02),
    DN(___, 0, 0x481),
    DN(___, 0, 0xA02),
    DN(___, 0, 0xA02),
    DN(G_5, 2, 0x481),
    DN(___, 0, 0x481),
    DN(___, 0, 0xA02),
    DN(___, 0, 0xA02),
    DN(Ds5, 2, 0x481),
    DN(___, 0, 0x481),
    DN(___, 0, 0xA02),
    DN(___, 0, 0x481),
    DN(___, 0, 0xA02),
    DN(___, 0, 0x481),
    DN(___, 0, 0x202),
    DN(___, 0, 0x202),
    DN(Ds5, 2, 0xC09),
    DN(___, 0, 0x481),
    DN(___, 0, 0xA02),
    DN(___, 0, 0x481),
    DN(G_5, 2, 0xC09),
    DN(___, 0, 0x481),
    DN(___, 0, 0xA02),
    DN(___, 0, 0x481),
    DN(Ds5, 2, 0xC0A),
    DN(___, 0, 0x481),
    DN(___, 0, 0xA02),
    DN(___, 0, 0x481),
    DN(Ds6, 2, 0x3F0),
    DN(___, 0, 0x481),
    DN(D_6, 2, 0x340),
    DN(Ds6, 2, 0xC09),
    DN(C_6, 2, 0x340),
    DN(D_6, 2, 0xC09),
    DN(As5, 2, 0x360),
    DN(C_6, 2, 0xB04),
};
static const unsigned char* const order1[] = {song_pattern_0, song_pattern_0, song_pattern_0, song_pattern_10, song_pattern_10, song_pattern_10, song_pattern_10, song_pattern_16, song_pattern_16};
static const unsigned char* const order2[] = {song_pattern_1, song_pattern_4, song_pattern_7, song_pattern_1, song_pattern_4, song_pattern_1, song_pattern_13, song_pattern_17, song_pattern_20};
static const unsigned char* const order3[] = {song_pattern_2, song_pattern_5, song_pattern_8, song_pattern_11, song_pattern_11, song_pattern_11, song_pattern_14, song_pattern_18, song_pattern_18};
static const unsigned char* const order4[] = {song_pattern_3, song_pattern_6, song_pattern_9, song_pattern_12, song_pattern_12, song_pattern_12, song_pattern_15, song_pattern_19, song_pattern_19};
static const unsigned char duty_instruments[] = {
    0x00, 0x00, 0xF0, 0x80,
    0x00, 0x40, 0xF0, 0x80,
    0x00, 0x80, 0xF0, 0x80,
    0x00, 0xC0, 0xF0, 0x80,
    0x00, 0x00, 0xF1, 0x80,
    0x00, 0x40, 0xF1, 0x80,
    0x00, 0x80, 0xF1, 0x80,
    0x00, 0xC0, 0xF1, 0x80,
    0x00, 0xC0, 0xC0, 0x80,
    0x00, 0xC0, 0x40, 0x80,
    0x00, 0x80, 0xF0, 0x80,
    0x00, 0x80, 0xF0, 0x80,
    0x00, 0x80, 0xF0, 0x80,
    0x00, 0x80, 0xF0, 0x80,
    0x00, 0x80, 0xF0, 0x80,
};
static const unsigned char wave_instruments[] = {
    0x00, 0x20, 0x00, 0x80,
    0x00, 0x20, 0x01, 0x80,
    0x00, 0x20, 0x02, 0x80,
    0x00, 0x20, 0x03, 0x80,
    0x00, 0x20, 0x04, 0x80,
    0x00, 0x20, 0x05, 0x80,
    0x00, 0x20, 0x06, 0x80,
    0x00, 0x20, 0x07, 0x80,
    0x00, 0x20, 0x08, 0x80,
    0x00, 0x20, 0x09, 0x80,
    0x00, 0x20, 0x0A, 0x80,
    0x00, 0x20, 0x0B, 0x80,
    0x00, 0x20, 0x0C, 0x80,
    0x00, 0x20, 0x0D, 0x80,
    0x00, 0x20, 0x0E, 0x80,
};
static const unsigned char noise_instruments[] = {
    0xF1, 0x80, 0, 0, 0, 0, 0, 0,
    0xF1, 0x49, 0, 0, 0, 0, 0, 0,
    0xF1, 0x00, 0, 0, 0, 0, 0, 0,
    0xF0, 0x00, 0, 0, 0, 0, 0, 0,
    0xF0, 0x00, 0, 0, 0, 0, 0, 0,
    0xF0, 0x00, 0, 0, 0, 0, 0, 0,
    0xF0, 0x00, 0, 0, 0, 0, 0, 0,
    0x0E, 0x80, 0, 0, 0, 0, 0, 0,
    0xF0, 0x00, 0, 0, 0, 0, 0, 0,
    0xF0, 0x00, 0, 0, 0, 0, 0, 0,
    0xF0, 0x00, 0, 0, 0, 0, 0, 0,
    0xF0, 0x00, 0, 0, 0, 0, 0, 0,
    0xF0, 0x00, 0, 0, 0, 0, 0, 0,
    0xF0, 0x00, 0, 0, 0, 0, 0, 0,
    0xF0, 0x00, 0, 0, 0, 0, 0, 0,
};
static const unsigned char waves[] = {
    0x00, 0x00, 0xFF, 0xFF, 0xFF, 0xFF, 0xFF, 0xFF, 0xFF, 0xFF, 0xFF, 0xFF, 0xFF, 0xFF, 0xFF, 0xFF,
    0x00, 0x00, 0x00, 0x00, 0xFF, 0xFF, 0xFF, 0xFF, 0xFF, 0xFF, 0xFF, 0xFF, 0xFF, 0xFF, 0xFF, 0xFF,
    0x00, 0x00, 0x00, 0x00, 0x00, 0x00, 0x00, 0x00, 0xFF, 0xFF, 0xFF, 0xFF, 0xFF, 0xFF, 0xFF, 0xFF,
    0x77, 0xFF, 0x20, 0x00, 0x45, 0x56, 0x66, 0x77, 0x72, 0x22, 0x22, 0x22, 0x22, 0x2A, 0xAA, 0xA8,
    0x00, 0x72, 0x10, 0xDD, 0xDA, 0xCE, 0x11, 0x11, 0x1B, 0x84, 0x22, 0xEE, 0xEE, 0x11, 0x11, 0x1F,
    0xFE, 0xDC, 0xBA, 0x98, 0x76, 0x54, 0x32, 0x10, 0x12, 0x34, 0x56, 0x78, 0x9A, 0xBC, 0xDE, 0xFF,
    0x7A, 0xCD, 0xDB, 0x75, 0x21, 0x13, 0x68, 0xBD, 0xDC, 0x97, 0x41, 0x01, 0x47, 0x9C, 0xDD, 0xB8,
    0x0F, 0x0F, 0x0F, 0x0F, 0x0F, 0x0F, 0x0F, 0x0F, 0x0F, 0x0F, 0x0F, 0x0F, 0x0F, 0x0F, 0x0F, 0x0F,
    0xFE, 0xFC, 0xFA, 0xF8, 0xF6, 0xF4, 0xF2, 0xF0, 0xF2, 0xF4, 0xF6, 0xF8, 0xFA, 0xFC, 0xFE, 0xFF,
    0xFE, 0xDD, 0xCC, 0xBB, 0xAA, 0x99, 0x88, 0x77, 0x8A, 0xBD, 0xF1, 0x24, 0x57, 0x8A, 0xBD, 0xEE,
    0x84, 0x11, 0x61, 0xED, 0x57, 0x47, 0x5A, 0xAD, 0xCE, 0xA3, 0x17, 0x79, 0xDD, 0x20, 0x03, 0x47,
    0xAC, 0x3E, 0xAE, 0x1A, 0x41, 0x25, 0x96, 0xC9, 0x87, 0x90, 0xE5, 0x0A, 0xBE, 0x7B, 0xC0, 0x01,
    0xB6, 0xA3, 0x94, 0xBD, 0x4D, 0x1C, 0x69, 0x35, 0xD0, 0xB8, 0x42, 0xD0, 0x13, 0x9D, 0xAC, 0x05,
    0xAC, 0x76, 0x4A, 0x54, 0x0D, 0xBA, 0xED, 0x81, 0x9E, 0x22, 0xC4, 0xAA, 0x6A, 0xD8, 0xC4, 0x48,
    0x44, 0xA1, 0xED, 0x02, 0xA3, 0x5E, 0x37, 0x66, 0x08, 0x4C, 0x23, 0x5C, 0xEB, 0xCC, 0x5E, 0x1C,
    0x7B, 0x94, 0x27, 0x24, 0xC2, 0x59, 0x73, 0xE8, 0x20, 0xC9, 0xCC, 0xC9, 0x5D, 0x6E, 0x12, 0xEC,
};

const void __at(255) __bank_music_track_0__Data;
const hUGESong_t music_track_0__Data = {
    5,
    &order_cnt,
    order1, order2, order3, order4,
    duty_instruments, wave_instruments, noise_instruments,
    routines,
    waves
};
